<mxfile host="app.diagrams.net" modified="2023-06-12T11:55:42.736Z" agent="Mozilla/5.0 (Windows NT 10.0; Win64; x64) AppleWebKit/537.36 (KHTML, like Gecko) Chrome/114.0.0.0 Safari/537.36" etag="4DwgFdCGQgKwkFDPg-2V" version="21.3.7" type="device" pages="2">
  <diagram name="Page-1" id="PRlw332ktBbzcgeMkB5e">
    <mxGraphModel dx="1050" dy="581" grid="1" gridSize="10" guides="1" tooltips="1" connect="1" arrows="1" fold="1" page="1" pageScale="1" pageWidth="827" pageHeight="1169" math="0" shadow="0">
      <root>
        <mxCell id="0" />
        <mxCell id="1" parent="0" />
        <mxCell id="xs2kz6v64g81Vd5Zar2z-2" value="Concessionaire" style="shape=umlActor;verticalLabelPosition=bottom;verticalAlign=top;html=1;outlineConnect=0;" parent="1" vertex="1">
          <mxGeometry x="40" y="470" width="30" height="60" as="geometry" />
        </mxCell>
        <mxCell id="xs2kz6v64g81Vd5Zar2z-7" value="S&#39;authentifier" style="ellipse;whiteSpace=wrap;html=1;verticalAlign=middle;" parent="1" vertex="1">
          <mxGeometry x="140" y="220" width="105" height="80" as="geometry" />
        </mxCell>
        <mxCell id="7Je8KwwaAEK_kzxHnYMa-2" value="" style="endArrow=none;html=1;rounded=0;entryX=0.067;entryY=0.794;entryDx=0;entryDy=0;entryPerimeter=0;exitX=0.75;exitY=0.1;exitDx=0;exitDy=0;exitPerimeter=0;" parent="1" source="xs2kz6v64g81Vd5Zar2z-2" target="xs2kz6v64g81Vd5Zar2z-7" edge="1">
          <mxGeometry width="50" height="50" relative="1" as="geometry">
            <mxPoint x="90" y="340" as="sourcePoint" />
            <mxPoint x="140" y="290" as="targetPoint" />
          </mxGeometry>
        </mxCell>
        <mxCell id="7Je8KwwaAEK_kzxHnYMa-3" value="Consulter le Planning" style="ellipse;whiteSpace=wrap;html=1;verticalAlign=middle;" parent="1" vertex="1">
          <mxGeometry x="140" y="320" width="105" height="80" as="geometry" />
        </mxCell>
        <mxCell id="7Je8KwwaAEK_kzxHnYMa-4" value="" style="endArrow=none;html=1;rounded=0;entryX=0;entryY=0.5;entryDx=0;entryDy=0;exitX=1;exitY=0.3333333333333333;exitDx=0;exitDy=0;exitPerimeter=0;" parent="1" source="xs2kz6v64g81Vd5Zar2z-2" target="7Je8KwwaAEK_kzxHnYMa-3" edge="1">
          <mxGeometry width="50" height="50" relative="1" as="geometry">
            <mxPoint x="90" y="360" as="sourcePoint" />
            <mxPoint x="120" y="370" as="targetPoint" />
          </mxGeometry>
        </mxCell>
        <mxCell id="7Je8KwwaAEK_kzxHnYMa-5" value="Consulter les Réservations" style="ellipse;whiteSpace=wrap;html=1;verticalAlign=middle;" parent="1" vertex="1">
          <mxGeometry x="140" y="420" width="105" height="80" as="geometry" />
        </mxCell>
        <mxCell id="7Je8KwwaAEK_kzxHnYMa-6" value="Consulter les détails d&#39;une réservations" style="ellipse;whiteSpace=wrap;html=1;" parent="1" vertex="1">
          <mxGeometry x="300" y="380" width="120" height="80" as="geometry" />
        </mxCell>
        <mxCell id="7Je8KwwaAEK_kzxHnYMa-8" value="Extends" style="endArrow=block;endSize=16;endFill=0;html=1;rounded=0;entryX=0.037;entryY=0.619;entryDx=0;entryDy=0;entryPerimeter=0;" parent="1" target="7Je8KwwaAEK_kzxHnYMa-6" edge="1">
          <mxGeometry x="-0.0929" y="-5" width="160" relative="1" as="geometry">
            <mxPoint x="240" y="440" as="sourcePoint" />
            <mxPoint x="310" y="430" as="targetPoint" />
            <mxPoint as="offset" />
          </mxGeometry>
        </mxCell>
        <mxCell id="7Je8KwwaAEK_kzxHnYMa-10" value="Extends" style="endArrow=block;endSize=16;endFill=0;html=1;rounded=0;exitX=0.971;exitY=0.681;exitDx=0;exitDy=0;exitPerimeter=0;entryX=0;entryY=0.406;entryDx=0;entryDy=0;entryPerimeter=0;" parent="1" source="7Je8KwwaAEK_kzxHnYMa-5" target="7Je8KwwaAEK_kzxHnYMa-13" edge="1">
          <mxGeometry x="-0.217" y="-1" width="160" relative="1" as="geometry">
            <mxPoint x="250" y="496" as="sourcePoint" />
            <mxPoint x="310" y="486" as="targetPoint" />
            <mxPoint as="offset" />
          </mxGeometry>
        </mxCell>
        <mxCell id="7Je8KwwaAEK_kzxHnYMa-13" value="Consulter les réservations à traiter" style="ellipse;whiteSpace=wrap;html=1;" parent="1" vertex="1">
          <mxGeometry x="300" y="480" width="120" height="80" as="geometry" />
        </mxCell>
        <mxCell id="7Je8KwwaAEK_kzxHnYMa-14" value="Extends" style="endArrow=block;endSize=16;endFill=0;html=1;rounded=0;exitX=0.971;exitY=0.681;exitDx=0;exitDy=0;exitPerimeter=0;entryX=0;entryY=0.5;entryDx=0;entryDy=0;" parent="1" target="7Je8KwwaAEK_kzxHnYMa-15" edge="1">
          <mxGeometry x="-0.217" y="-1" width="160" relative="1" as="geometry">
            <mxPoint x="420" y="520" as="sourcePoint" />
            <mxPoint x="490" y="520" as="targetPoint" />
            <mxPoint as="offset" />
          </mxGeometry>
        </mxCell>
        <mxCell id="7Je8KwwaAEK_kzxHnYMa-15" value="Traiter une réservation" style="ellipse;whiteSpace=wrap;html=1;verticalAlign=middle;" parent="1" vertex="1">
          <mxGeometry x="490" y="480" width="105" height="80" as="geometry" />
        </mxCell>
        <mxCell id="7Je8KwwaAEK_kzxHnYMa-16" value="Incliude" style="endArrow=block;endSize=16;endFill=0;html=1;rounded=0;exitX=0.971;exitY=0.681;exitDx=0;exitDy=0;exitPerimeter=0;" parent="1" edge="1">
          <mxGeometry x="-0.217" y="-1" width="160" relative="1" as="geometry">
            <mxPoint x="595" y="500" as="sourcePoint" />
            <mxPoint x="660" y="470" as="targetPoint" />
            <mxPoint as="offset" />
          </mxGeometry>
        </mxCell>
        <mxCell id="7Je8KwwaAEK_kzxHnYMa-17" value="Valider la réservation" style="ellipse;whiteSpace=wrap;html=1;verticalAlign=middle;" parent="1" vertex="1">
          <mxGeometry x="660" y="420" width="105" height="80" as="geometry" />
        </mxCell>
        <mxCell id="7Je8KwwaAEK_kzxHnYMa-18" value="Incliude" style="endArrow=block;endSize=16;endFill=0;html=1;rounded=0;exitX=0.971;exitY=0.719;exitDx=0;exitDy=0;exitPerimeter=0;" parent="1" source="7Je8KwwaAEK_kzxHnYMa-15" edge="1">
          <mxGeometry x="-0.217" y="-1" width="160" relative="1" as="geometry">
            <mxPoint x="595" y="590" as="sourcePoint" />
            <mxPoint x="660" y="560" as="targetPoint" />
            <mxPoint as="offset" />
          </mxGeometry>
        </mxCell>
        <mxCell id="7Je8KwwaAEK_kzxHnYMa-19" value="Refuser la réservation" style="ellipse;whiteSpace=wrap;html=1;verticalAlign=middle;" parent="1" vertex="1">
          <mxGeometry x="660" y="520" width="105" height="80" as="geometry" />
        </mxCell>
        <mxCell id="7Je8KwwaAEK_kzxHnYMa-21" value="Rembourser le clients via Paypal" style="ellipse;whiteSpace=wrap;html=1;verticalAlign=middle;" parent="1" vertex="1">
          <mxGeometry x="810" y="520" width="105" height="80" as="geometry" />
        </mxCell>
        <mxCell id="7Je8KwwaAEK_kzxHnYMa-22" value="Incliude" style="endArrow=block;endSize=16;endFill=0;html=1;rounded=0;exitX=0.971;exitY=0.719;exitDx=0;exitDy=0;exitPerimeter=0;entryX=0;entryY=0.5;entryDx=0;entryDy=0;" parent="1" target="7Je8KwwaAEK_kzxHnYMa-21" edge="1">
          <mxGeometry x="-0.217" y="-1" width="160" relative="1" as="geometry">
            <mxPoint x="765" y="560" as="sourcePoint" />
            <mxPoint x="833" y="582" as="targetPoint" />
            <mxPoint as="offset" />
          </mxGeometry>
        </mxCell>
        <mxCell id="7Je8KwwaAEK_kzxHnYMa-23" value="Paypal" style="whiteSpace=wrap;html=1;" parent="1" vertex="1">
          <mxGeometry x="1030" y="530" width="120" height="60" as="geometry" />
        </mxCell>
        <mxCell id="7Je8KwwaAEK_kzxHnYMa-25" value="" style="endArrow=none;html=1;rounded=0;entryX=0;entryY=0.5;entryDx=0;entryDy=0;" parent="1" target="7Je8KwwaAEK_kzxHnYMa-23" edge="1">
          <mxGeometry width="50" height="50" relative="1" as="geometry">
            <mxPoint x="915" y="560" as="sourcePoint" />
            <mxPoint x="972" y="504" as="targetPoint" />
          </mxGeometry>
        </mxCell>
        <mxCell id="7Je8KwwaAEK_kzxHnYMa-26" value="" style="endArrow=none;html=1;rounded=0;exitX=0;exitY=0.5;exitDx=0;exitDy=0;" parent="1" source="7Je8KwwaAEK_kzxHnYMa-5" target="xs2kz6v64g81Vd5Zar2z-2" edge="1">
          <mxGeometry width="50" height="50" relative="1" as="geometry">
            <mxPoint x="50" y="488" as="sourcePoint" />
            <mxPoint x="107" y="432" as="targetPoint" />
          </mxGeometry>
        </mxCell>
        <mxCell id="7Je8KwwaAEK_kzxHnYMa-27" value="Modifier les parasols (réservations)" style="ellipse;whiteSpace=wrap;html=1;verticalAlign=middle;" parent="1" vertex="1">
          <mxGeometry x="140" y="520" width="105" height="80" as="geometry" />
        </mxCell>
        <mxCell id="7Je8KwwaAEK_kzxHnYMa-28" value="Consulter les cilients" style="ellipse;whiteSpace=wrap;html=1;verticalAlign=middle;" parent="1" vertex="1">
          <mxGeometry x="140" y="620" width="105" height="80" as="geometry" />
        </mxCell>
        <mxCell id="7Je8KwwaAEK_kzxHnYMa-29" value="" style="endArrow=none;html=1;rounded=0;exitX=-0.019;exitY=0.356;exitDx=0;exitDy=0;exitPerimeter=0;" parent="1" source="7Je8KwwaAEK_kzxHnYMa-27" target="xs2kz6v64g81Vd5Zar2z-2" edge="1">
          <mxGeometry width="50" height="50" relative="1" as="geometry">
            <mxPoint x="120" y="520" as="sourcePoint" />
            <mxPoint x="90" y="430" as="targetPoint" />
          </mxGeometry>
        </mxCell>
        <mxCell id="7Je8KwwaAEK_kzxHnYMa-30" value="" style="endArrow=none;html=1;rounded=0;exitX=0.057;exitY=0.181;exitDx=0;exitDy=0;exitPerimeter=0;" parent="1" source="7Je8KwwaAEK_kzxHnYMa-28" target="xs2kz6v64g81Vd5Zar2z-2" edge="1">
          <mxGeometry width="50" height="50" relative="1" as="geometry">
            <mxPoint x="130" y="642" as="sourcePoint" />
            <mxPoint x="70" y="420" as="targetPoint" />
          </mxGeometry>
        </mxCell>
        <mxCell id="7Je8KwwaAEK_kzxHnYMa-31" value="Extends" style="endArrow=block;endSize=16;endFill=0;html=1;rounded=0;exitX=0.971;exitY=0.681;exitDx=0;exitDy=0;exitPerimeter=0;entryX=0;entryY=0.406;entryDx=0;entryDy=0;entryPerimeter=0;" parent="1" target="7Je8KwwaAEK_kzxHnYMa-32" edge="1">
          <mxGeometry x="-0.217" y="-1" width="160" relative="1" as="geometry">
            <mxPoint x="245" y="650" as="sourcePoint" />
            <mxPoint x="313" y="662" as="targetPoint" />
            <mxPoint as="offset" />
          </mxGeometry>
        </mxCell>
        <mxCell id="7Je8KwwaAEK_kzxHnYMa-32" value="Filtrer les clients" style="ellipse;whiteSpace=wrap;html=1;" parent="1" vertex="1">
          <mxGeometry x="300" y="620" width="120" height="80" as="geometry" />
        </mxCell>
        <mxCell id="7Je8KwwaAEK_kzxHnYMa-33" value="Incliude" style="endArrow=block;endSize=16;endFill=0;html=1;rounded=0;exitX=0.971;exitY=0.719;exitDx=0;exitDy=0;exitPerimeter=0;entryX=0.038;entryY=0.406;entryDx=0;entryDy=0;entryPerimeter=0;" parent="1" target="7Je8KwwaAEK_kzxHnYMa-34" edge="1">
          <mxGeometry x="-0.217" y="-1" width="160" relative="1" as="geometry">
            <mxPoint x="420" y="658" as="sourcePoint" />
            <mxPoint x="488" y="680" as="targetPoint" />
            <mxPoint as="offset" />
          </mxGeometry>
        </mxCell>
        <mxCell id="7Je8KwwaAEK_kzxHnYMa-34" value="Par Pays et/ou Par date d&#39;inscription" style="ellipse;whiteSpace=wrap;html=1;verticalAlign=middle;" parent="1" vertex="1">
          <mxGeometry x="470" y="620" width="120" height="80" as="geometry" />
        </mxCell>
        <mxCell id="7Je8KwwaAEK_kzxHnYMa-35" value="Extends" style="endArrow=block;endSize=16;endFill=0;html=1;rounded=0;exitX=1;exitY=1;exitDx=0;exitDy=0;entryX=0;entryY=0.406;entryDx=0;entryDy=0;entryPerimeter=0;" parent="1" source="7Je8KwwaAEK_kzxHnYMa-28" target="7Je8KwwaAEK_kzxHnYMa-36" edge="1">
          <mxGeometry x="-0.217" y="-1" width="160" relative="1" as="geometry">
            <mxPoint x="245" y="750" as="sourcePoint" />
            <mxPoint x="313" y="762" as="targetPoint" />
            <mxPoint as="offset" />
          </mxGeometry>
        </mxCell>
        <mxCell id="7Je8KwwaAEK_kzxHnYMa-36" value="Supprimer les clients" style="ellipse;whiteSpace=wrap;html=1;" parent="1" vertex="1">
          <mxGeometry x="300" y="720" width="130" height="80" as="geometry" />
        </mxCell>
        <mxCell id="7Je8KwwaAEK_kzxHnYMa-37" value="Incliude" style="endArrow=block;endSize=16;endFill=0;html=1;rounded=0;exitX=0.971;exitY=0.719;exitDx=0;exitDy=0;exitPerimeter=0;entryX=0.038;entryY=0.406;entryDx=0;entryDy=0;entryPerimeter=0;" parent="1" target="7Je8KwwaAEK_kzxHnYMa-38" edge="1">
          <mxGeometry x="-0.217" y="-1" width="160" relative="1" as="geometry">
            <mxPoint x="430" y="758" as="sourcePoint" />
            <mxPoint x="498" y="780" as="targetPoint" />
            <mxPoint as="offset" />
          </mxGeometry>
        </mxCell>
        <mxCell id="7Je8KwwaAEK_kzxHnYMa-38" value="Uniquement si aucune de ses réservations n’a déjà été validée" style="ellipse;whiteSpace=wrap;html=1;verticalAlign=middle;" parent="1" vertex="1">
          <mxGeometry x="480" y="720" width="200" height="100" as="geometry" />
        </mxCell>
        <mxCell id="7Je8KwwaAEK_kzxHnYMa-39" value="Déconnexion" style="ellipse;whiteSpace=wrap;html=1;verticalAlign=middle;" parent="1" vertex="1">
          <mxGeometry x="140" y="720" width="105" height="80" as="geometry" />
        </mxCell>
        <mxCell id="7Je8KwwaAEK_kzxHnYMa-41" value="" style="endArrow=none;html=1;rounded=0;exitX=0;exitY=0.25;exitDx=0;exitDy=0;exitPerimeter=0;" parent="1" source="7Je8KwwaAEK_kzxHnYMa-39" target="xs2kz6v64g81Vd5Zar2z-2" edge="1">
          <mxGeometry width="50" height="50" relative="1" as="geometry">
            <mxPoint x="89" y="548" as="sourcePoint" />
            <mxPoint x="41" y="430" as="targetPoint" />
          </mxGeometry>
        </mxCell>
        <mxCell id="7Je8KwwaAEK_kzxHnYMa-43" value="" style="rounded=0;whiteSpace=wrap;html=1;fillColor=none;" parent="1" vertex="1">
          <mxGeometry x="100" y="200" width="890" height="630" as="geometry" />
        </mxCell>
      </root>
    </mxGraphModel>
  </diagram>
  <diagram id="3_YHITTagtWX9A86sopr" name="Page-2">
    <mxGraphModel dx="1050" dy="581" grid="1" gridSize="10" guides="1" tooltips="1" connect="1" arrows="1" fold="1" page="1" pageScale="1" pageWidth="827" pageHeight="1169" math="0" shadow="0">
      <root>
        <mxCell id="0" />
        <mxCell id="1" parent="0" />
        <mxCell id="7YEvoEyRcFF5wWGlXwXu-3" value="Client" style="shape=umlActor;verticalLabelPosition=bottom;verticalAlign=top;html=1;outlineConnect=0;" parent="1" vertex="1">
          <mxGeometry x="30" y="640" width="30" height="60" as="geometry" />
        </mxCell>
        <mxCell id="0mkmSgc3abS9DALmab33-7" value="S&#39;authentifier" style="ellipse;whiteSpace=wrap;html=1;verticalAlign=middle;" parent="1" vertex="1">
          <mxGeometry x="150" y="470" width="105" height="80" as="geometry" />
        </mxCell>
        <mxCell id="0mkmSgc3abS9DALmab33-8" value="S&#39;inscrire" style="ellipse;whiteSpace=wrap;html=1;verticalAlign=middle;" parent="1" vertex="1">
          <mxGeometry x="150" y="370" width="105" height="80" as="geometry" />
        </mxCell>
        <mxCell id="0mkmSgc3abS9DALmab33-9" value="Consulter les Réservations" style="ellipse;whiteSpace=wrap;html=1;verticalAlign=middle;" parent="1" vertex="1">
          <mxGeometry x="150" y="570" width="105" height="80" as="geometry" />
        </mxCell>
        <mxCell id="0mkmSgc3abS9DALmab33-10" value="Ajouter une réservation" style="ellipse;whiteSpace=wrap;html=1;verticalAlign=middle;" parent="1" vertex="1">
          <mxGeometry x="150" y="670" width="105" height="80" as="geometry" />
        </mxCell>
        <mxCell id="0mkmSgc3abS9DALmab33-11" value="Modifier ses informations" style="ellipse;whiteSpace=wrap;html=1;verticalAlign=middle;" parent="1" vertex="1">
          <mxGeometry x="150" y="770" width="105" height="80" as="geometry" />
        </mxCell>
        <mxCell id="0mkmSgc3abS9DALmab33-12" value="Déconnexion" style="ellipse;whiteSpace=wrap;html=1;verticalAlign=middle;" parent="1" vertex="1">
          <mxGeometry x="150" y="870" width="105" height="80" as="geometry" />
        </mxCell>
        <mxCell id="uHMdzk_WBq7nxkFZxW28-1" value="Incliude" style="endArrow=block;endSize=16;endFill=0;html=1;rounded=0;exitX=1;exitY=0.5;exitDx=0;exitDy=0;entryX=0;entryY=0.5;entryDx=0;entryDy=0;" parent="1" source="0mkmSgc3abS9DALmab33-10" target="uHMdzk_WBq7nxkFZxW28-2" edge="1">
          <mxGeometry x="-0.217" y="-1" width="160" relative="1" as="geometry">
            <mxPoint x="255" y="740" as="sourcePoint" />
            <mxPoint x="320" y="710" as="targetPoint" />
            <mxPoint as="offset" />
          </mxGeometry>
        </mxCell>
        <mxCell id="uHMdzk_WBq7nxkFZxW28-2" value="Paiement vers la Sandbox Paypal" style="ellipse;whiteSpace=wrap;html=1;verticalAlign=middle;" parent="1" vertex="1">
          <mxGeometry x="320" y="670" width="105" height="80" as="geometry" />
        </mxCell>
        <mxCell id="uHMdzk_WBq7nxkFZxW28-3" value="PayPal" style="rounded=0;whiteSpace=wrap;html=1;" parent="1" vertex="1">
          <mxGeometry x="530" y="680" width="120" height="60" as="geometry" />
        </mxCell>
        <mxCell id="uHMdzk_WBq7nxkFZxW28-4" value="" style="endArrow=none;html=1;rounded=0;entryX=0;entryY=0.5;entryDx=0;entryDy=0;" parent="1" target="uHMdzk_WBq7nxkFZxW28-3" edge="1">
          <mxGeometry width="50" height="50" relative="1" as="geometry">
            <mxPoint x="430" y="710" as="sourcePoint" />
            <mxPoint x="510" y="700" as="targetPoint" />
          </mxGeometry>
        </mxCell>
        <mxCell id="uHMdzk_WBq7nxkFZxW28-5" value="" style="endArrow=none;html=1;rounded=0;entryX=0.03;entryY=0.648;entryDx=0;entryDy=0;entryPerimeter=0;exitX=0.5;exitY=0;exitDx=0;exitDy=0;exitPerimeter=0;" parent="1" source="7YEvoEyRcFF5wWGlXwXu-3" target="0mkmSgc3abS9DALmab33-8" edge="1">
          <mxGeometry width="50" height="50" relative="1" as="geometry">
            <mxPoint x="100" y="480" as="sourcePoint" />
            <mxPoint x="150" y="430" as="targetPoint" />
          </mxGeometry>
        </mxCell>
        <mxCell id="uHMdzk_WBq7nxkFZxW28-6" value="" style="endArrow=none;html=1;rounded=0;entryX=0.061;entryY=0.728;entryDx=0;entryDy=0;entryPerimeter=0;" parent="1" source="7YEvoEyRcFF5wWGlXwXu-3" target="0mkmSgc3abS9DALmab33-7" edge="1">
          <mxGeometry width="50" height="50" relative="1" as="geometry">
            <mxPoint x="120" y="590" as="sourcePoint" />
            <mxPoint x="170" y="540" as="targetPoint" />
          </mxGeometry>
        </mxCell>
        <mxCell id="uHMdzk_WBq7nxkFZxW28-7" value="" style="endArrow=none;html=1;rounded=0;entryX=0.084;entryY=0.798;entryDx=0;entryDy=0;entryPerimeter=0;" parent="1" source="7YEvoEyRcFF5wWGlXwXu-3" target="0mkmSgc3abS9DALmab33-9" edge="1">
          <mxGeometry width="50" height="50" relative="1" as="geometry">
            <mxPoint x="110" y="690" as="sourcePoint" />
            <mxPoint x="160" y="640" as="targetPoint" />
          </mxGeometry>
        </mxCell>
        <mxCell id="uHMdzk_WBq7nxkFZxW28-8" value="" style="endArrow=none;html=1;rounded=0;entryX=0;entryY=0.5;entryDx=0;entryDy=0;" parent="1" source="7YEvoEyRcFF5wWGlXwXu-3" target="0mkmSgc3abS9DALmab33-10" edge="1">
          <mxGeometry width="50" height="50" relative="1" as="geometry">
            <mxPoint x="100" y="760" as="sourcePoint" />
            <mxPoint x="150" y="710" as="targetPoint" />
          </mxGeometry>
        </mxCell>
        <mxCell id="uHMdzk_WBq7nxkFZxW28-9" value="" style="endArrow=none;html=1;rounded=0;exitX=0.008;exitY=0.378;exitDx=0;exitDy=0;exitPerimeter=0;" parent="1" source="0mkmSgc3abS9DALmab33-11" target="7YEvoEyRcFF5wWGlXwXu-3" edge="1">
          <mxGeometry width="50" height="50" relative="1" as="geometry">
            <mxPoint x="90" y="780" as="sourcePoint" />
            <mxPoint x="140" y="730" as="targetPoint" />
          </mxGeometry>
        </mxCell>
        <mxCell id="uHMdzk_WBq7nxkFZxW28-10" value="" style="endArrow=none;html=1;rounded=0;exitX=0.015;exitY=0.408;exitDx=0;exitDy=0;exitPerimeter=0;" parent="1" source="0mkmSgc3abS9DALmab33-12" target="7YEvoEyRcFF5wWGlXwXu-3" edge="1">
          <mxGeometry width="50" height="50" relative="1" as="geometry">
            <mxPoint x="70" y="870" as="sourcePoint" />
            <mxPoint x="120" y="820" as="targetPoint" />
          </mxGeometry>
        </mxCell>
        <mxCell id="uHMdzk_WBq7nxkFZxW28-11" value="" style="rounded=0;whiteSpace=wrap;html=1;fillColor=none;" parent="1" vertex="1">
          <mxGeometry x="90" y="350" width="410" height="620" as="geometry" />
        </mxCell>
      </root>
    </mxGraphModel>
  </diagram>
</mxfile>
